<?xml version="1.0" standalone="no"?>
<svg xmlns="http://www.w3.org/2000/svg" viewBox="0 0 119.664 36" width="119.664" height="36"><g fill="#921b7e" color="#921b7e" transform="translate(0 3.9999999999999982) scale(0.2800001)"><svg width="100.0" height="100.0" x="0.0" y="0.0" viewBox="0 0 100 100"><g><path fill="currentColor" d="M53.2,60H22.1c-1.7,0-3.1,1.4-3.1,3.1s1.4,3.1,3.1,3.1h31.1c1.7,0,3.1-1.4,3.1-3.1S54.9,60,53.2,60z"></path><path fill="currentColor" d="M42.5,56h3.9c1.7,0,3.1-1.4,3.1-3.1s-1.4-3.1-3.1-3.1h-3.9c-1.7,0-3.1,1.4-3.1,3.1S40.8,56,42.5,56z"></path><path fill="currentColor" d="M59.2,49.8h-3.9c-1.7,0-3.1,1.4-3.1,3.1s1.4,3.1,3.1,3.1h3.9c1.7,0,3.1-1.4,3.1-3.1S60.9,49.8,59.2,49.8z"></path><path fill="currentColor" d="M29.3,56h3.9c1.7,0,3.1-1.4,3.1-3.1s-1.4-3.1-3.1-3.1h-3.9c-1.7,0-3.1,1.4-3.1,3.1S27.6,56,29.3,56z"></path><path fill="currentColor" d="M23.2,52.9c0-1.7-1.4-3.1-3.1-3.1h-3.9c-1.7,0-3.1,1.4-3.1,3.1s1.4,3.1,3.1,3.1h3.9   C21.8,56,23.2,54.6,23.2,52.9z"></path><path fill="currentColor" d="M42.5,45.9h3.9c1.7,0,3.1-1.4,3.1-3.1s-1.4-3.1-3.1-3.1h-3.9c-1.7,0-3.1,1.4-3.1,3.1S40.8,45.9,42.5,45.9z"></path><path fill="currentColor" d="M55.3,39.7c-1.7,0-3.1,1.4-3.1,3.1s1.4,3.1,3.1,3.1h3.9c1.7,0,3.1-1.4,3.1-3.1s-1.4-3.1-3.1-3.1H55.3z"></path><path fill="currentColor" d="M29.3,45.9h3.9c1.7,0,3.1-1.4,3.1-3.1s-1.4-3.1-3.1-3.1h-3.9c-1.7,0-3.1,1.4-3.1,3.1S27.6,45.9,29.3,45.9z"></path><path fill="currentColor" d="M16.2,45.9h3.9c1.7,0,3.1-1.4,3.1-3.1s-1.4-3.1-3.1-3.1h-3.9c-1.7,0-3.1,1.4-3.1,3.1S14.5,45.9,16.2,45.9z"></path><path fill="currentColor" d="M92.2,41.6v-5.7c0-4.8-3.9-8.7-8.7-8.7H67.7h-7.7H7.7c-4.2,0-7.5,3.4-7.5,7.5v34.2c0,4.2,3.4,7.5,7.5,7.5   h60c4.2,0,7.5-3.4,7.5-7.5V34.7c0-0.5-0.1-0.9-0.1-1.3h8.4c1.4,0,2.5,1.1,2.5,2.5v5.7c-4.3,1.3-7.4,5.3-7.4,10v9.9   c0,5.8,4.7,10.5,10.5,10.5c5.8,0,10.5-4.7,10.5-10.5v-9.9C99.6,46.9,96.5,42.9,92.2,41.6z M69,34.7v34.2c0,0.7-0.6,1.3-1.3,1.3h-60   c-0.7,0-1.3-0.6-1.3-1.3V34.7c0-0.7,0.6-1.3,1.3-1.3h52.3h7.7C68.4,33.4,69,34,69,34.7z M89.1,47.3c2.4,0,4.3,1.9,4.3,4.3V52h-8.5   v-0.5C84.8,49.2,86.8,47.3,89.1,47.3z M89.1,65.7c-2.4,0-4.3-1.9-4.3-4.3v-3.2h8.5v3.2C93.4,63.8,91.5,65.7,89.1,65.7z"></path></g></svg></g><path fill="#ffffff" fill-rule="nonzero" d="M9.74 0.96L13.06 0.96L13.06 12.19Q13.06 14.98 11.17 16.58Q9.29 18.19 6.53 18.19Q3.77 18.19 1.88 16.58Q0 14.98 0 12.19L0 12.19L0 0.96L3.34 0.96L3.34 12.07Q3.34 13.66 4.21 14.44Q5.09 15.22 6.53 15.22Q7.97 15.22 8.86 14.44Q9.74 13.66 9.74 12.07L9.74 12.07L9.74 0.96ZM22.15 18.07L22.15 18.07L19.44 18.05Q17.64 18.05 16.72 16.99Q15.79 15.94 15.79 14.47L15.79 14.47L15.79 0L18.91 0L18.91 6.05L22.63 4.32Q24.77 4.32 25.78 5.47L25.78 5.47Q26.66 6.50 26.88 8.81L26.88 8.81Q26.95 9.77 26.95 11.18L26.95 11.18Q26.95 18.07 22.15 18.07ZM19.70 15.38L19.70 15.38L21.24 15.38Q23.83 15.38 23.83 11.18L23.83 11.18Q23.83 9.05 23.44 8.21Q23.04 7.37 21.72 7.37L21.72 7.37L18.91 8.88L18.91 14.28Q18.91 15.24 19.70 15.38ZM40.01 11.93L40.01 11.93L32.02 11.93Q32.02 13.80 32.60 14.66Q33.19 15.53 34.97 15.53L34.97 15.53Q36.12 15.53 36.67 14.80Q37.22 14.06 37.22 13.39L37.22 13.39L40.03 13.39Q40.03 15.96 38.65 17.16Q37.27 18.36 35.00 18.36Q32.74 18.36 31.49 17.71L31.49 17.71Q28.92 16.39 28.92 10.70L28.92 10.70Q28.92 7.32 30.38 5.75Q31.85 4.18 34.85 4.18L34.85 4.18Q40.06 4.18 40.06 9.96L40.06 9.96Q40.06 10.58 40.01 11.93ZM32.09 9.79L32.09 9.79L37.22 9.79Q37.22 8.21 36.62 7.49Q36.02 6.77 34.79 6.77Q33.55 6.77 32.82 7.50Q32.09 8.23 32.09 9.79ZM50.16 4.39L50.16 4.39L49.30 7.46Q48.94 7.32 48.48 7.32L48.48 7.32Q47.28 7.32 45.53 8.35L45.53 8.35L45.53 18.05L42.41 18.05L42.41 4.34L44.74 4.34L45.46 5.54L48.77 4.18Q49.01 4.15 49.42 4.15Q49.82 4.15 50.16 4.39ZM63.74 15.07L63.74 18.05L57.70 18.05Q54.82 18.05 53.65 17.05Q52.49 16.06 52.49 13.54L52.49 13.54L52.49 0.96L63.74 0.96L63.74 3.94L55.82 3.94L55.82 7.94L61.37 7.94L61.13 10.92L55.82 10.92L55.82 13.30Q55.82 14.30 56.28 14.69Q56.74 15.07 57.94 15.07L57.94 15.07L63.74 15.07ZM69.77 0L69.77 18.05L66.65 18.07L66.65 0L69.77 0ZM80.54 11.86L80.54 11.86L80.54 10.61Q80.54 8.83 80.03 7.90Q79.51 6.96 77.88 6.96L77.88 6.96Q75.24 6.96 75.24 10.51L75.24 10.51L75.24 11.76Q75.24 15.58 77.88 15.58L77.88 15.58Q79.58 15.58 80.11 14.30L80.11 14.30Q80.54 13.30 80.54 11.86ZM83.66 11.14L83.66 11.14Q83.66 15.58 81.98 17.09L81.98 17.09Q80.57 18.38 77.88 18.38L77.88 18.38Q74.45 18.38 73.25 16.37L73.25 16.37Q72.12 14.52 72.12 11.14L72.12 11.14Q72.12 7.97 73.25 6.17L73.25 6.17Q74.50 4.15 77.80 4.15Q81.10 4.15 82.38 5.92Q83.66 7.68 83.66 11.14Z" transform="translate(36, 8.808)"></path></svg>